#
# Bunkspeed OBJ File
# http://www.bunkspeed.com
#
mtllib Pool.mtl

##########################
g Root|Pool_(Default)|Default|Default_-_Part
##########################
v -25.117 2.7503 11.427
v -25.117 2.7503 -11.427
v -25.117 0.0003 11.427
v -25.117 0.0003 -11.427
v 25.117 2.7503 11.427
v -25.117 2.7503 11.427
v 25.117 0.0003 11.427
v -25.117 0.0003 11.427
v 25.117 2.7503 -11.427
v 25.117 2.7503 11.427
v 25.117 0.0003 -11.427
v 25.117 0.0003 11.427
v -25.117 2.7503 -11.427
v 25.117 2.7503 -11.427
v -25.117 0.0003 -11.427
v 25.117 0.0003 -11.427
v 25.117 0.0003 -11.427
v 25.117 0.0003 11.427
v -25.117 0.0003 -11.427
v -25.117 0.0003 11.427
v 24.867 2.7503 -11.177
v 25.117 2.7503 -11.427
v -24.867 2.7503 -11.177
v -25.117 2.7503 -11.427
v -24.867 2.7503 11.177
v -25.117 2.7503 11.427
v 24.867 2.7503 11.177
v 25.117 2.7503 11.427
v 24.867 2.7503 -11.177
v 25.117 2.7503 -11.427
v 24.867 2.7503 -11.177
v -24.867 2.7503 -11.177
v 24.867 0.2503 -11.177
v -24.867 0.2503 -11.177
v -24.867 2.7503 -11.177
v -24.867 2.7503 11.177
v -24.867 0.2503 -11.177
v -24.867 0.2503 11.177
v -24.867 2.7503 11.177
v 24.867 2.7503 11.177
v -24.867 0.2503 11.177
v 24.867 0.2503 11.177
v 24.867 2.7503 11.177
v 24.867 2.7503 -11.177
v 24.867 0.2503 11.177
v 24.867 0.2503 -11.177
v -24.867 0.2503 11.177
v 24.867 0.2503 11.177
v -24.867 0.2503 -11.177
v 24.867 0.2503 -11.177
vt 0.7274754 0.5273719
vt 0.2725246 0.5273719
vt 0.7274754 0.4726281
vt 0.2725246 0.4726281
vt 0.9999999 0.5273719
vt 5.960464E-08 0.5273719
vt 0.9999999 0.4726281
vt 5.960464E-08 0.4726281
vt 0.7274754 0.5273719
vt 0.2725246 0.5273719
vt 0.7274754 0.4726281
vt 0.2725246 0.4726281
vt 0.9999999 0.5273719
vt 5.960464E-08 0.5273719
vt 0.9999999 0.4726281
vt 5.960464E-08 0.4726281
vt 5.960464E-08 0.7274754
vt 5.960464E-08 0.2725246
vt 0.9999999 0.7274754
vt 0.9999999 0.2725246
vt 0.9950233 0.7224987
vt 0.9999999 0.7274754
vt 0.004976749 0.7224987
vt 5.960464E-08 0.7274754
vt 0.004976749 0.2775013
vt 5.960464E-08 0.2725246
vt 0.9950233 0.2775013
vt 0.9999999 0.2725246
vt 0.9950233 0.7224987
vt 0.9999999 0.7274754
vt 0.9950233 0.5273719
vt 0.004976749 0.5273719
vt 0.9950233 0.4776048
vt 0.004976749 0.4776048
vt 0.7224987 0.5273719
vt 0.2775013 0.5273719
vt 0.7224987 0.4776048
vt 0.2775013 0.4776048
vt 0.9950233 0.5273719
vt 0.004976749 0.5273719
vt 0.9950233 0.4776048
vt 0.004976749 0.4776048
vt 0.7224987 0.5273719
vt 0.2775013 0.5273719
vt 0.7224987 0.4776048
vt 0.2775013 0.4776048
vt 0.004976749 0.2775013
vt 0.9950233 0.2775013
vt 0.004976749 0.7224987
vt 0.9950233 0.7224987
vn -1 0 0
vn -1 0 0
vn -1 0 0
vn -1 0 0
vn 0 0 1
vn 0 0 1
vn 0 0 1
vn 0 0 1
vn 1 0 0
vn 1 0 0
vn 1 0 0
vn 1 0 0
vn 0 0 -1
vn 0 0 -1
vn 0 0 -1
vn 0 0 -1
vn 0 -1 0
vn 0 -1 0
vn 0 -1 0
vn 0 -1 0
vn 0 1 0
vn 0 1 0
vn 0 1 0
vn 0 1 0
vn 0 1 0
vn 0 1 0
vn 0 1 0
vn 0 1 0
vn 0 1 0
vn 0 1 0
vn 0 0 1
vn 0 0 1
vn 0 0 1
vn 0 0 1
vn 1 0 0
vn 1 0 0
vn 1 0 0
vn 1 0 0
vn 0 0 -1
vn 0 0 -1
vn 0 0 -1
vn 0 0 -1
vn -1 0 0
vn -1 0 0
vn -1 0 0
vn -1 0 0
vn 0 1 0
vn 0 1 0
vn 0 1 0
vn 0 1 0
usemtl Light_Grey_Low_Gloss_Paint
f 1/1/1 2/2/2 3/3/3
f 2/2/2 4/4/4 3/3/3
f 5/5/5 6/6/6 7/7/7
f 6/6/6 8/8/8 7/7/7
f 9/9/9 10/10/10 11/11/11
f 10/10/10 12/12/12 11/11/11
f 13/13/13 14/14/14 15/15/15
f 14/14/14 16/16/16 15/15/15
f 17/17/17 18/18/18 19/19/19
f 18/18/18 20/20/20 19/19/19
f 21/21/21 22/22/22 23/23/23
f 22/22/22 24/24/24 23/23/23
f 23/23/23 24/24/24 25/25/25
f 24/24/24 26/26/26 25/25/25
f 25/25/25 26/26/26 27/27/27
f 26/26/26 28/28/28 27/27/27
f 27/27/27 28/28/28 29/29/29
f 28/28/28 30/30/30 29/29/29
f 31/31/31 32/32/32 33/33/33
f 32/32/32 34/34/34 33/33/33
f 35/35/35 36/36/36 37/37/37
f 36/36/36 38/38/38 37/37/37
f 39/39/39 40/40/40 41/41/41
f 40/40/40 42/42/42 41/41/41
f 43/43/43 44/44/44 45/45/45
f 44/44/44 46/46/46 45/45/45
f 47/47/47 48/48/48 49/49/49
f 48/48/48 50/50/50 49/49/49
##########################

